HIERARCHY
ROOT root
{
	OFFSET 0.000000 0.000000 0.000000
	CHANNELS 6 Xposition Yposition Zposition Zrotation Yrotation Xrotation
	JOINT lhip
	{
		OFFSET 0.058581 -0.082280 -0.017664
		CHANNELS 3 Zrotation Yrotation Xrotation
		JOINT lknee
		{
			OFFSET 0.043451 -0.386469 0.008037
			CHANNELS 3 Zrotation Yrotation Xrotation
			JOINT lankle
			{
				OFFSET -0.014790 -0.426874 -0.037428
				CHANNELS 3 Zrotation Yrotation Xrotation
				JOINT ltoe
				{
					OFFSET 0.041054 -0.060286 0.122042
					CHANNELS 3 Zrotation Yrotation Xrotation
					End Site
					{
						OFFSET 0.000000 0.000000 0.000000
					}
				}
			}
		}
	}
	JOINT rhip
	{
		OFFSET -0.060310 -0.090513 -0.013543
		CHANNELS 3 Zrotation Yrotation Xrotation
		JOINT rknee
		{
			OFFSET -0.043257 -0.383688 -0.004843
			CHANNELS 3 Zrotation Yrotation Xrotation
			JOINT rankle
			{
				OFFSET 0.019056 -0.420046 -0.034562
				CHANNELS 3 Zrotation Yrotation Xrotation
				JOINT rtoe
				{
					OFFSET -0.034840 -0.062106 0.130323
					CHANNELS 3 Zrotation Yrotation Xrotation
					End Site
					{
						OFFSET 0.000000 0.000000 0.000000
					}
				}
			}
		}
	}
	JOINT lowerback
	{
		OFFSET 0.004439 0.124404 -0.038385
		CHANNELS 3 Zrotation Yrotation Xrotation
		JOINT upperback
		{
			OFFSET 0.004488 0.137956 0.026820
			CHANNELS 3 Zrotation Yrotation Xrotation
			JOINT chest
			{
				OFFSET -0.002265 0.056032 0.002855
				CHANNELS 3 Zrotation Yrotation Xrotation
				JOINT lowerneck
				{
					OFFSET -0.013390 0.211636 -0.033468
					CHANNELS 3 Zrotation Yrotation Xrotation
					JOINT upperneck
					{
						OFFSET 0.010113 0.088937 0.050410
						CHANNELS 3 Zrotation Yrotation Xrotation
						End Site
						{
							OFFSET 0.000000 0.000000 0.000000
						}
					}
				}
				JOINT lclavicle
				{
					OFFSET 0.071702 0.114000 -0.018898
					CHANNELS 3 Zrotation Yrotation Xrotation
					JOINT lshoulder
					{
						OFFSET 0.122921 0.045205 -0.019046
						CHANNELS 3 Zrotation Yrotation Xrotation
						JOINT lelbow
						{
							OFFSET 0.255332 -0.015649 -0.022946
							CHANNELS 3 Zrotation Yrotation Xrotation
							JOINT lwrist
							{
								OFFSET 0.265709 0.012698 -0.007375
								CHANNELS 3 Zrotation Yrotation Xrotation
								End Site
								{
									OFFSET 0.000000 0.000000 0.000000
								}
							}
						}
					}
				}
				JOINT rclavicle
				{
					OFFSET -0.082954 0.112472 -0.023707
					CHANNELS 3 Zrotation Yrotation Xrotation
					JOINT rshoulder
					{
						OFFSET -0.113228 0.046853 -0.008472
						CHANNELS 3 Zrotation Yrotation Xrotation
						JOINT relbow
						{
							OFFSET -0.260127 -0.014369 -0.031269
							CHANNELS 3 Zrotation Yrotation Xrotation
							JOINT rwrist
							{
								OFFSET -0.269108 0.006794 -0.006027
								CHANNELS 3 Zrotation Yrotation Xrotation
								End Site
								{
									OFFSET 0.000000 0.000000 0.000000
								}
							}
						}
					}
				}
			}
		}
	}
}
MOTION
Frames: 13
Frame Time: 0.033333
0.502977 0.205825 0.991135 90.088969 3.375025 97.946941 6.784487 4.011739 -6.231191 3.063051 -1.780898 -5.857857 -1.331197 10.161678 -3.108967 0.000000 -0.000000 0.000000 -2.015731 -2.549698 -8.670900 -1.535811 -0.098652 1.038048 5.663652 -7.135724 -3.036869 0.000000 -0.000000 0.000000 -1.346128 1.110318 -3.252871 3.608788 -4.110167 1.589268 -0.152554 1.437516 -10.723152 0.002457 -12.977152 21.450270 8.806315 -12.384695 0.043249 -18.130880 2.903296 -1.466213 -65.465003 -5.551615 28.232749 5.804909 -13.861541 16.780468 -14.020125 -6.623364 16.711982 19.781664 -1.103725 0.170025 59.210827 3.125050 18.670941 -3.789096 12.023453 11.452380 8.866816 1.079170 4.387648 
0.502474 0.205437 0.991356 90.101817 3.328771 97.720057 6.752073 3.949915 -5.967363 3.044027 -1.876476 -5.972949 -1.407957 10.336916 -3.005476 0.000000 -0.000000 0.000000 -2.048608 -2.850052 -8.463905 -1.463596 0.419011 1.018630 5.770458 -7.326225 -2.886376 0.000000 -0.000000 0.000000 -1.095602 0.965651 -2.450360 3.589045 -3.787524 0.239643 -0.264150 1.121814 -8.639747 0.671009 -13.023780 16.186953 7.193304 -12.476030 0.722430 -19.124173 4.042930 -3.159478 -64.154115 -5.949995 28.409381 4.423871 -13.834091 17.846180 -12.506759 -7.747448 16.088482 20.427955 -1.533025 -1.662620 58.554904 4.457988 19.282677 -2.768859 9.605838 11.378192 8.412861 1.177872 5.465824 
0.502326 0.204430 0.991535 90.225069 3.264945 97.597148 6.619577 3.756580 -5.790575 3.126843 -1.933751 -6.155841 -1.595696 10.511645 -2.933186 0.000000 -0.000000 0.000000 -2.059656 -2.989749 -8.206236 -1.445541 0.810422 0.809317 5.708419 -7.678254 -2.741638 0.000000 -0.000000 0.000000 -0.887320 0.748885 -1.965024 3.638382 -3.488526 -1.055578 -0.437174 0.738200 -6.119563 1.479511 -12.816493 10.242799 5.380119 -12.440781 1.612677 -20.096684 5.324919 -5.383994 -62.894004 -6.420040 29.117989 2.791950 -13.665329 18.913351 -10.829660 -9.009446 15.665499 20.996125 -1.705615 -3.893081 57.959606 5.964762 20.470593 -1.589348 6.656763 10.686189 7.704383 1.675457 6.453882 
0.503366 0.202858 0.991422 90.506589 3.324905 97.541228 6.711450 3.719957 -5.647508 3.112862 -2.294054 -6.403262 -1.767743 10.592239 -2.821293 0.000000 -0.000000 0.000000 -1.722593 -3.062470 -7.800621 -1.709931 0.852601 0.274134 5.589767 -7.965766 -2.834227 0.000000 -0.000000 0.000000 -0.486613 0.677635 -1.109093 3.307460 -3.346703 -2.018388 -0.592947 1.009236 -6.065112 1.135911 -13.484781 9.771022 5.738389 -12.449077 1.467437 -19.831891 4.695492 -4.814311 -62.486236 -6.638523 28.865680 2.025442 -13.679611 19.227251 -10.075174 -10.149524 14.488865 20.427049 -1.059523 -4.026009 58.415630 5.027332 20.642131 -1.436402 6.378885 10.556283 7.313513 2.329004 5.189381 
0.503466 0.202696 0.991472 90.508155 3.317677 97.526931 6.694886 3.725314 -5.610674 3.116120 -2.333480 -6.440808 -1.786208 10.613086 -2.842909 0.000000 -0.000000 0.000000 -1.702655 -3.073724 -7.771734 -1.739225 0.867906 0.239655 5.575996 -7.969781 -2.848221 0.000000 -0.000000 0.000000 -0.316562 0.703390 -0.877816 3.202864 -3.343196 -2.248236 -0.692350 0.941816 -6.163782 1.063119 -13.524280 9.738714 5.692672 -12.397868 1.562066 -19.742869 4.698026 -4.768072 -62.464258 -6.570892 28.859524 1.945463 -13.631945 19.343835 -9.942206 -10.168070 14.276080 20.340094 -1.024364 -4.032325 58.436720 5.142156 20.646144 -1.081344 6.031848 10.648897 7.244301 2.348544 5.115380 
0.502974 0.203005 0.991394 90.405166 3.302650 97.671275 6.564785 3.652610 -5.816949 3.228517 -2.265352 -6.395704 -1.742116 10.686827 -2.884314 0.000000 -0.000000 0.000000 -1.775490 -2.947201 -8.045681 -1.694298 0.759241 0.341630 5.600684 -7.820013 -2.803904 0.000000 -0.000000 0.000000 -0.126809 0.600703 -0.930013 3.270019 -3.535763 -2.348622 -0.624272 0.221913 -6.188509 0.815166 -12.936049 9.769909 5.295111 -11.906682 1.594264 -19.930264 5.632486 -5.412946 -62.642603 -6.148339 29.007384 2.224395 -13.610587 19.411119 -10.102751 -9.940983 14.543428 20.272298 -0.486533 -3.391879 58.228864 6.366302 20.978370 -0.639978 5.301469 10.264717 7.294762 2.368940 5.462626 
0.502796 0.203008 0.991384 90.361777 3.318323 97.717931 6.512672 3.656350 -5.910136 3.301505 -2.288302 -6.353321 -1.711571 10.693801 -2.893505 0.000000 -0.000000 0.000000 -1.746554 -2.896488 -8.138769 -1.715777 0.751398 0.361779 5.567745 -7.850083 -2.809162 0.000000 -0.000000 0.000000 -0.031868 0.653859 -0.788357 3.262233 -3.510389 -2.529389 -0.654969 0.293628 -6.311465 0.569205 -13.019285 9.847819 5.292634 -11.926902 1.606518 -19.998563 5.557303 -5.420372 -62.656988 -6.061800 29.097838 2.374889 -13.563181 19.351274 -10.259248 -9.780469 14.721063 20.220155 -0.425121 -3.425503 58.204581 6.187543 20.948079 -0.631142 5.336683 10.220913 7.399403 2.347724 5.466093 
0.502642 0.202985 0.991398 90.317796 3.313581 97.734664 6.509894 3.668791 -5.941094 3.285663 -2.278645 -6.339275 -1.691213 10.711464 -2.878436 0.000000 -0.000000 0.000000 -1.743386 -2.873531 -8.198167 -1.724435 0.795616 0.393644 5.567624 -7.836426 -2.794926 0.000000 -0.000000 0.000000 -0.029336 0.666018 -0.745708 3.262560 -3.496484 -2.647921 -0.654457 0.319169 -6.295231 0.535249 -13.075938 9.827691 5.255324 -11.938368 1.655578 -20.022469 5.560347 -5.405354 -62.660071 -6.029287 29.120622 2.392319 -13.570335 19.387120 -10.242334 -9.736404 14.696477 20.243707 -0.433979 -3.474144 58.177392 6.134860 20.982669 -0.648311 5.407522 10.311727 7.429952 2.338778 5.434079 
0.502582 0.202991 0.991419 90.276855 3.312648 97.719404 6.502944 3.667345 -5.906980 3.286902 -2.245901 -6.363676 -1.686650 10.735941 -2.868492 0.000000 -0.000000 0.000000 -1.748752 -2.863004 -8.186175 -1.724045 0.817406 0.374938 5.579562 -7.826050 -2.789974 0.000000 -0.000000 0.000000 -0.006338 0.668997 -0.689495 3.246037 -3.476926 -2.758893 -0.661301 0.334698 -6.252219 0.538103 -13.131512 9.796156 5.195612 -11.931910 1.823585 -20.026694 5.560663 -5.392241 -62.674242 -6.027126 29.135632 2.340343 -13.559460 19.413104 -10.211927 -9.771745 14.605766 20.222831 -0.439818 -3.479869 58.198420 6.134797 21.036506 -0.644730 5.447107 10.365179 7.384938 2.361357 5.398361 
0.502585 0.202980 0.991433 90.258511 3.317792 97.685104 6.496263 3.656786 -5.862158 3.324946 -2.248269 -6.366468 -1.685267 10.721614 -2.871198 0.000000 -0.000000 0.000000 -1.750395 -2.867066 -8.145645 -1.723259 0.792529 0.368247 5.589168 -7.797165 -2.794402 0.000000 -0.000000 0.000000 0.018851 0.673779 -0.649155 3.239824 -3.494942 -2.780924 -0.659622 0.317012 -6.251461 0.500371 -13.150170 9.839415 5.280931 -12.008443 1.625397 -19.988563 5.513560 -5.382286 -62.747741 -5.996513 29.107765 2.277653 -13.545903 19.381328 -10.234053 -9.770124 14.594997 20.164702 -0.340773 -3.431722 58.260874 6.146041 21.002238 -0.677680 5.436626 10.340856 7.362864 2.386042 5.407070 
0.502572 0.202986 0.991458 90.265461 3.318071 97.670853 6.496083 3.645577 -5.839106 3.334216 -2.225583 -6.382396 -1.695989 10.693173 -2.869782 0.000000 -0.000000 0.000000 -1.759340 -2.880022 -8.125584 -1.702132 0.778776 0.353601 5.612167 -7.752605 -2.779343 0.000000 -0.000000 0.000000 0.028030 0.674769 -0.739435 3.246761 -3.532798 -2.695534 -0.642196 0.199711 -6.179128 0.522523 -13.029532 9.814320 5.233832 -12.036073 1.570447 -19.971715 5.502634 -5.405873 -62.811498 -6.012112 29.084715 2.240245 -13.503512 19.349969 -10.193806 -9.784571 14.594657 20.195709 -0.211246 -3.284514 58.198003 6.382365 20.990161 -0.648724 5.355194 10.260415 7.310364 2.384640 5.465062 
0.502477 0.203030 0.991423 90.317591 3.328379 97.683070 6.507820 3.618018 -5.861364 3.338707 -2.227656 -6.395005 -1.691508 10.682008 -2.876131 0.000000 -0.000000 0.000000 -1.745603 -2.891792 -8.134483 -1.703158 0.770985 0.355485 5.604208 -7.781497 -2.792241 0.000000 -0.000000 0.000000 0.065982 0.664511 -0.717728 3.258580 -3.547562 -2.767707 -0.625797 0.127619 -6.134933 0.562959 -13.170680 9.680255 5.094938 -12.075438 1.656932 -20.023606 5.509708 -5.412035 -62.864310 -5.988942 29.134492 2.257078 -13.575998 19.447682 -10.129011 -9.764811 14.570524 20.197415 -0.161021 -3.199787 58.139114 6.486461 21.035757 -0.638446 5.355622 10.286015 7.268849 2.374024 5.463843 
0.502515 0.203022 0.991411 90.342059 3.336597 97.684479 6.516950 3.604381 -5.859784 3.325478 -2.184789 -6.413430 -1.680988 10.697593 -2.870118 0.000000 -0.000000 0.000000 -1.728875 -2.892924 -8.124615 -1.717415 0.761828 0.354366 5.580846 -7.817480 -2.790142 0.000000 -0.000000 0.000000 0.074289 0.665799 -0.622938 3.259133 -3.524961 -2.862692 -0.620793 0.223247 -6.201437 0.592434 -13.351219 9.740689 5.199040 -12.122475 1.650605 -20.075757 5.452723 -5.355399 -62.870838 -5.996043 29.133710 2.270939 -13.659519 19.534177 -10.166207 -9.776488 14.583618 20.132109 -0.231626 -3.297390 58.189940 6.273303 21.011660 -0.683692 5.431062 10.348454 7.263773 2.404477 5.394777 
